<svg width="30" height="30" viewBox="0 0 40 40" fill="none" xmlns="http://www.w3.org/2000/svg">
<mask id="mask0_6339_288819" style="mask-type:alpha" maskUnits="userSpaceOnUse" x="0" y="0" width="40" height="40">
<rect width="40" height="40" transform="matrix(-1 0 0 1 40 0)" fill="#D9D9D9"/>
</mask>
<g mask="url(#mask0_6339_288819)">
<path d="M25.207 28.5423C25.457 28.2923 25.582 28.0007 25.582 27.6673C25.582 27.334 25.457 27.0423 25.207 26.7923L18.4154 20.0007L25.207 13.209C25.457 12.959 25.582 12.6673 25.582 12.334C25.582 12.0007 25.457 11.709 25.207 11.459C24.957 11.209 24.6654 11.084 24.332 11.084C23.9987 11.084 23.707 11.209 23.457 11.459L15.957 18.959C15.8181 19.0979 15.7137 19.2573 15.6437 19.4373C15.5748 19.6184 15.5404 19.8062 15.5404 20.0007C15.5404 20.1951 15.5748 20.3823 15.6437 20.5623C15.7137 20.7434 15.8181 20.9034 15.957 21.0423L23.457 28.5423C23.707 28.7923 23.9987 28.9173 24.332 28.9173C24.6654 28.9173 24.957 28.7923 25.207 28.5423Z" fill="white"/>
</g>
</svg>
