<svg width="48" height="48" viewBox="0 0 48 48" fill="none" xmlns="http://www.w3.org/2000/svg">
<rect width="48.0001" height="48.0001" rx="24" fill="black" fill-opacity="0.1"/>
<path d="M23.52 14.1601L16.8 19.2001H14.4C13.7635 19.2001 13.153 19.4529 12.7029 19.903C12.2529 20.3531 12 20.9635 12 21.6001V26.4001C12 27.0366 12.2529 27.647 12.7029 28.0971C13.153 28.5472 13.7635 28.8001 14.4 28.8001H16.8L23.52 33.8401C23.7874 34.0406 24.1054 34.1628 24.4384 34.1928C24.7713 34.2228 25.106 34.1595 25.405 34.01C25.704 33.8605 25.9554 33.6308 26.1312 33.3464C26.3069 33.062 26.4 32.7344 26.4 32.4001V15.6001C26.4 15.2658 26.3069 14.9381 26.1312 14.6537C25.9554 14.3694 25.704 14.1396 25.405 13.9901C25.106 13.8406 24.7713 13.7773 24.4384 13.8073C24.1054 13.8373 23.7874 13.9595 23.52 14.1601ZM34.092 24.0001L35.652 22.4521C35.7639 22.3402 35.8527 22.2073 35.9132 22.0612C35.9738 21.915 36.0049 21.7583 36.0049 21.6001C36.0049 21.4418 35.9738 21.2851 35.9132 21.139C35.8527 20.9928 35.7639 20.8599 35.652 20.7481C35.5401 20.6362 35.4073 20.5474 35.2611 20.4869C35.1149 20.4263 34.9583 20.3951 34.8 20.3951C34.6418 20.3951 34.4851 20.4263 34.3389 20.4869C34.1927 20.5474 34.0599 20.6362 33.948 20.7481L32.4 22.3081L30.852 20.7481C30.6261 20.5221 30.3196 20.3951 30 20.3951C29.6805 20.3951 29.374 20.5221 29.148 20.7481C28.9221 20.974 28.7951 21.2805 28.7951 21.6001C28.7951 21.9196 28.9221 22.2261 29.148 22.4521L30.708 24.0001L29.148 25.5481C29.0356 25.6596 28.9463 25.7923 28.8854 25.9386C28.8244 26.0848 28.7931 26.2417 28.7931 26.4001C28.7931 26.5585 28.8244 26.7153 28.8854 26.8616C28.9463 27.0078 29.0356 27.1405 29.148 27.2521C29.2596 27.3645 29.3923 27.4538 29.5385 27.5147C29.6848 27.5757 29.8416 27.607 30 27.607C30.1584 27.607 30.3153 27.5757 30.4615 27.5147C30.6077 27.4538 30.7405 27.3645 30.852 27.2521L32.4 25.6921L33.948 27.2521C34.0596 27.3645 34.1923 27.4538 34.3385 27.5147C34.4848 27.5757 34.6416 27.607 34.8 27.607C34.9584 27.607 35.1153 27.5757 35.2615 27.5147C35.4078 27.4538 35.5405 27.3645 35.652 27.2521C35.7645 27.1405 35.8538 27.0078 35.9147 26.8616C35.9756 26.7153 36.007 26.5585 36.007 26.4001C36.007 26.2417 35.9756 26.0848 35.9147 25.9386C35.8538 25.7923 35.7645 25.6596 35.652 25.5481L34.092 24.0001Z" fill="white"/>
</svg>
